G04 #@! TF.GenerationSoftware,KiCad,Pcbnew,10.0.1*
G04 #@! TF.CreationDate,2026-04-27T21:18:20-05:00*
G04 #@! TF.ProjectId,SplitFlapBusBoard,53706c69-7446-46c6-9170-427573426f61,rev?*
G04 #@! TF.SameCoordinates,Original*
G04 #@! TF.FileFunction,Legend,Bot*
G04 #@! TF.FilePolarity,Positive*
%FSLAX46Y46*%
G04 Gerber Fmt 4.6, Leading zero omitted, Abs format (unit mm)*
G04 Created by KiCad (PCBNEW 10.0.1) date 2026-04-27 21:18:20*
%MOMM*%
%LPD*%
G01*
G04 APERTURE LIST*
%ADD10C,0.300000*%
G04 APERTURE END LIST*
D10*
X27159774Y-26127761D02*
X28016917Y-26127761D01*
X27588346Y-26127761D02*
X27588346Y-23127761D01*
X27588346Y-23127761D02*
X27731203Y-23556332D01*
X27731203Y-23556332D02*
X27874060Y-23842046D01*
X27874060Y-23842046D02*
X28016917Y-23984904D01*
X26588346Y-23413475D02*
X26516918Y-23270618D01*
X26516918Y-23270618D02*
X26374061Y-23127761D01*
X26374061Y-23127761D02*
X26016918Y-23127761D01*
X26016918Y-23127761D02*
X25874061Y-23270618D01*
X25874061Y-23270618D02*
X25802632Y-23413475D01*
X25802632Y-23413475D02*
X25731203Y-23699189D01*
X25731203Y-23699189D02*
X25731203Y-23984904D01*
X25731203Y-23984904D02*
X25802632Y-24413475D01*
X25802632Y-24413475D02*
X26659775Y-26127761D01*
X26659775Y-26127761D02*
X25731203Y-26127761D01*
X25302632Y-23127761D02*
X24802632Y-26127761D01*
X24802632Y-26127761D02*
X24302632Y-23127761D01*
X25731203Y-30100450D02*
X25016918Y-30100450D01*
X25874060Y-30957593D02*
X25374060Y-27957593D01*
X25374060Y-27957593D02*
X24874060Y-30957593D01*
X25159775Y-34215996D02*
X24945489Y-34358853D01*
X24945489Y-34358853D02*
X24874060Y-34501710D01*
X24874060Y-34501710D02*
X24802632Y-34787425D01*
X24802632Y-34787425D02*
X24802632Y-35215996D01*
X24802632Y-35215996D02*
X24874060Y-35501710D01*
X24874060Y-35501710D02*
X24945489Y-35644568D01*
X24945489Y-35644568D02*
X25088346Y-35787425D01*
X25088346Y-35787425D02*
X25659775Y-35787425D01*
X25659775Y-35787425D02*
X25659775Y-32787425D01*
X25659775Y-32787425D02*
X25159775Y-32787425D01*
X25159775Y-32787425D02*
X25016918Y-32930282D01*
X25016918Y-32930282D02*
X24945489Y-33073139D01*
X24945489Y-33073139D02*
X24874060Y-33358853D01*
X24874060Y-33358853D02*
X24874060Y-33644568D01*
X24874060Y-33644568D02*
X24945489Y-33930282D01*
X24945489Y-33930282D02*
X25016918Y-34073139D01*
X25016918Y-34073139D02*
X25159775Y-34215996D01*
X25159775Y-34215996D02*
X25659775Y-34215996D01*
X27159774Y-37760114D02*
X27302632Y-37617257D01*
X27302632Y-37617257D02*
X27516917Y-37617257D01*
X27516917Y-37617257D02*
X27731203Y-37760114D01*
X27731203Y-37760114D02*
X27874060Y-38045828D01*
X27874060Y-38045828D02*
X27945489Y-38331542D01*
X27945489Y-38331542D02*
X28016917Y-38902971D01*
X28016917Y-38902971D02*
X28016917Y-39331542D01*
X28016917Y-39331542D02*
X27945489Y-39902971D01*
X27945489Y-39902971D02*
X27874060Y-40188685D01*
X27874060Y-40188685D02*
X27731203Y-40474400D01*
X27731203Y-40474400D02*
X27516917Y-40617257D01*
X27516917Y-40617257D02*
X27374060Y-40617257D01*
X27374060Y-40617257D02*
X27159774Y-40474400D01*
X27159774Y-40474400D02*
X27088346Y-40331542D01*
X27088346Y-40331542D02*
X27088346Y-39331542D01*
X27088346Y-39331542D02*
X27374060Y-39331542D01*
X26445489Y-40617257D02*
X26445489Y-37617257D01*
X26445489Y-37617257D02*
X25588346Y-40617257D01*
X25588346Y-40617257D02*
X25588346Y-37617257D01*
X24874060Y-40617257D02*
X24874060Y-37617257D01*
X24874060Y-37617257D02*
X24516917Y-37617257D01*
X24516917Y-37617257D02*
X24302631Y-37760114D01*
X24302631Y-37760114D02*
X24159774Y-38045828D01*
X24159774Y-38045828D02*
X24088345Y-38331542D01*
X24088345Y-38331542D02*
X24016917Y-38902971D01*
X24016917Y-38902971D02*
X24016917Y-39331542D01*
X24016917Y-39331542D02*
X24088345Y-39902971D01*
X24088345Y-39902971D02*
X24159774Y-40188685D01*
X24159774Y-40188685D02*
X24302631Y-40474400D01*
X24302631Y-40474400D02*
X24516917Y-40617257D01*
X24516917Y-40617257D02*
X24874060Y-40617257D01*
M02*
