M48
; DRILL file {KiCad 9.0.5} date 2025-11-13T16:07:09-0500
; FORMAT={-:-/ absolute / metric / decimal}
; #@! TF.CreationDate,2025-11-13T16:07:09-05:00
; #@! TF.GenerationSoftware,Kicad,Pcbnew,9.0.5
; #@! TF.FileFunction,Plated,1,2,PTH
FMAT,2
METRIC
; #@! TA.AperFunction,Plated,PTH,ViaDrill
T1C0.300
; #@! TA.AperFunction,Plated,PTH,ComponentDrill
T2C1.000
%
G90
G05
T1
X29.4Y-100.355
X32.78Y-100.35
X32.78Y-100.35
X32.78Y-100.35
X32.78Y-100.35
X32.78Y-100.35
X32.78Y-100.35
X32.78Y-100.35
X32.78Y-100.35
X32.78Y-100.35
X32.78Y-100.35
X32.78Y-100.35
X32.78Y-100.35
X32.78Y-100.35
X32.78Y-100.35
X32.78Y-100.35
X32.78Y-100.35
X32.78Y-100.35
X32.78Y-100.35
X32.78Y-100.35
T2
X25.25Y-97.815
X25.25Y-100.355
X25.25Y-102.895
X25.25Y-105.435
M30
